<svg xmlns="http://www.w3.org/2000/svg" xmlns:xlink="http://www.w3.org/1999/xlink" width="500" zoomAndPan="magnify" viewBox="0 0 375 374.999991" height="500" preserveAspectRatio="xMidYMid meet" version="1.0"><defs><clipPath id="d64ecad65b"><path d="M 111 14.707031 L 121 14.707031 L 121 24 L 111 24 Z M 111 14.707031 " clip-rule="nonzero"/></clipPath><clipPath id="9a8f4eace1"><path d="M 106.804688 244.152344 L 129.519531 244.152344 L 129.519531 267.054688 L 106.804688 267.054688 Z M 106.804688 244.152344 " clip-rule="nonzero"/></clipPath><clipPath id="0f92d4cb39"><path d="M 87.648438 351.171875 L 96.808594 351.171875 L 96.808594 360.277344 L 87.648438 360.277344 Z M 87.648438 351.171875 " clip-rule="nonzero"/></clipPath><clipPath id="69ab2d8c8b"><path d="M 242.917969 14.707031 L 294.667969 14.707031 L 294.667969 360.457031 L 242.917969 360.457031 Z M 242.917969 14.707031 " clip-rule="nonzero"/></clipPath><clipPath id="0d26672904"><path d="M 10 0.707031 L 20 0.707031 L 20 10 L 10 10 Z M 10 0.707031 " clip-rule="nonzero"/></clipPath><clipPath id="e1acbb51f7"><path d="M 30 93 L 52.667969 93 L 52.667969 116 L 30 116 Z M 30 93 " clip-rule="nonzero"/></clipPath><clipPath id="c63477911c"><path d="M 1.097656 230.152344 L 23.8125 230.152344 L 23.8125 253.054688 L 1.097656 253.054688 Z M 1.097656 230.152344 " clip-rule="nonzero"/></clipPath><clipPath id="766d7dc1fe"><path d="M 34 337.171875 L 42.96875 337.171875 L 42.96875 346.277344 L 34 346.277344 Z M 34 337.171875 " clip-rule="nonzero"/></clipPath><clipPath id="70a33b3765"><rect x="0" width="53" y="0" height="347"/></clipPath></defs><g clip-path="url(#d64ecad65b)"><path fill="#543719" d="M 115.683594 23.523438 C 113.246094 23.523438 111.273438 21.546875 111.273438 19.113281 C 111.273438 16.679688 113.246094 14.707031 115.683594 14.707031 C 118.117188 14.707031 120.085938 16.679688 120.085938 19.113281 C 120.085938 21.546875 118.117188 23.523438 115.683594 23.523438 " fill-opacity="1" fill-rule="nonzero"/></g><path fill="#543719" d="M 98.667969 57.238281 C 94.515625 57.238281 91.148438 53.875 91.148438 49.722656 C 91.148438 45.570312 94.515625 42.203125 98.667969 42.203125 C 102.820312 42.203125 106.1875 45.570312 106.1875 49.722656 C 106.1875 53.875 102.820312 57.238281 98.667969 57.238281 " fill-opacity="1" fill-rule="nonzero"/><path fill="#543719" d="M 89.632812 93.296875 C 84.242188 93.296875 79.875 88.925781 79.875 83.539062 C 79.875 78.152344 84.242188 73.78125 89.632812 73.78125 C 95.019531 73.78125 99.386719 78.152344 99.386719 83.539062 C 99.386719 88.925781 95.019531 93.296875 89.632812 93.296875 " fill-opacity="1" fill-rule="nonzero"/><path fill="#543719" d="M 89.34375 129.820312 C 83.117188 129.820312 78.070312 124.773438 78.070312 118.546875 C 78.070312 112.324219 83.117188 107.277344 89.34375 107.277344 C 95.570312 107.277344 100.617188 112.324219 100.617188 118.546875 C 100.617188 124.773438 95.570312 129.820312 89.34375 129.820312 " fill-opacity="1" fill-rule="nonzero"/><path fill="#543719" d="M 96.476562 165.023438 C 89.773438 165.023438 84.335938 159.589844 84.335938 152.882812 C 84.335938 146.179688 89.773438 140.742188 96.476562 140.742188 C 103.179688 140.742188 108.617188 146.179688 108.617188 152.882812 C 108.617188 159.589844 103.179688 165.023438 96.476562 165.023438 " fill-opacity="1" fill-rule="nonzero"/><path fill="#543719" d="M 105.433594 199.246094 C 98.570312 199.246094 93.007812 193.683594 93.007812 186.820312 C 93.007812 179.957031 98.570312 174.390625 105.433594 174.390625 C 112.296875 174.390625 117.859375 179.957031 117.859375 186.820312 C 117.859375 193.683594 112.296875 199.246094 105.433594 199.246094 " fill-opacity="1" fill-rule="nonzero"/><path fill="#543719" d="M 113.496094 233.125 C 106.78125 233.125 101.339844 227.683594 101.339844 220.976562 C 101.339844 214.265625 106.78125 208.824219 113.496094 208.824219 C 120.203125 208.824219 125.644531 214.265625 125.644531 220.976562 C 125.644531 227.683594 120.203125 233.125 113.496094 233.125 " fill-opacity="1" fill-rule="nonzero"/><g clip-path="url(#9a8f4eace1)"><path fill="#543719" d="M 118.222656 267.019531 C 111.984375 267.019531 106.929688 261.964844 106.929688 255.726562 C 106.929688 249.488281 111.984375 244.433594 118.222656 244.433594 C 124.460938 244.433594 129.519531 249.488281 129.519531 255.726562 C 129.519531 261.964844 124.460938 267.019531 118.222656 267.019531 " fill-opacity="1" fill-rule="nonzero"/></g><path fill="#543719" d="M 116.96875 300.523438 C 111.566406 300.523438 107.1875 296.144531 107.1875 290.742188 C 107.1875 285.339844 111.566406 280.960938 116.96875 280.960938 C 122.371094 280.960938 126.746094 285.339844 126.746094 290.742188 C 126.746094 296.144531 122.371094 300.523438 116.96875 300.523438 " fill-opacity="1" fill-rule="nonzero"/><path fill="#543719" d="M 108.085938 332.164062 C 103.921875 332.164062 100.542969 328.789062 100.542969 324.621094 C 100.542969 320.457031 103.921875 317.078125 108.085938 317.078125 C 112.25 317.078125 115.628906 320.457031 115.628906 324.621094 C 115.628906 328.789062 112.25 332.164062 108.085938 332.164062 " fill-opacity="1" fill-rule="nonzero"/><g clip-path="url(#0f92d4cb39)"><path fill="#543719" d="M 92.191406 360.277344 C 89.75 360.277344 87.769531 358.296875 87.769531 355.851562 C 87.769531 353.410156 89.75 351.429688 92.191406 351.429688 C 94.636719 351.429688 96.613281 353.410156 96.613281 355.851562 C 96.613281 358.296875 94.636719 360.277344 92.191406 360.277344 " fill-opacity="1" fill-rule="nonzero"/></g><g clip-path="url(#69ab2d8c8b)"><g transform="matrix(1, 0, 0, 1, 242, 14)"><g clip-path="url(#70a33b3765)"><g clip-path="url(#0d26672904)"><path fill="#543719" d="M 14.933594 9.523438 C 17.371094 9.523438 19.34375 7.546875 19.34375 5.113281 C 19.34375 2.679688 17.371094 0.707031 14.933594 0.707031 C 12.5 0.707031 10.53125 2.679688 10.53125 5.113281 C 10.53125 7.546875 12.5 9.523438 14.933594 9.523438 " fill-opacity="1" fill-rule="nonzero"/></g><path fill="#543719" d="M 31.949219 43.238281 C 36.101562 43.238281 39.46875 39.875 39.46875 35.722656 C 39.46875 31.570312 36.101562 28.203125 31.949219 28.203125 C 27.796875 28.203125 24.429688 31.570312 24.429688 35.722656 C 24.429688 39.875 27.796875 43.238281 31.949219 43.238281 " fill-opacity="1" fill-rule="nonzero"/><path fill="#543719" d="M 40.984375 79.296875 C 46.375 79.296875 50.742188 74.925781 50.742188 69.539062 C 50.742188 64.152344 46.375 59.78125 40.984375 59.78125 C 35.597656 59.78125 31.230469 64.152344 31.230469 69.539062 C 31.230469 74.925781 35.597656 79.296875 40.984375 79.296875 " fill-opacity="1" fill-rule="nonzero"/><g clip-path="url(#e1acbb51f7)"><path fill="#543719" d="M 41.273438 115.820312 C 47.5 115.820312 52.546875 110.773438 52.546875 104.546875 C 52.546875 98.324219 47.5 93.277344 41.273438 93.277344 C 35.046875 93.277344 30 98.324219 30 104.546875 C 30 110.773438 35.046875 115.820312 41.273438 115.820312 " fill-opacity="1" fill-rule="nonzero"/></g><path fill="#543719" d="M 34.140625 151.023438 C 40.84375 151.023438 46.28125 145.589844 46.28125 138.882812 C 46.28125 132.179688 40.84375 126.742188 34.140625 126.742188 C 27.4375 126.742188 22 132.179688 22 138.882812 C 22 145.589844 27.4375 151.023438 34.140625 151.023438 " fill-opacity="1" fill-rule="nonzero"/><path fill="#543719" d="M 25.183594 185.246094 C 32.046875 185.246094 37.609375 179.683594 37.609375 172.820312 C 37.609375 165.957031 32.046875 160.390625 25.183594 160.390625 C 18.320312 160.390625 12.757812 165.957031 12.757812 172.820312 C 12.757812 179.683594 18.320312 185.246094 25.183594 185.246094 " fill-opacity="1" fill-rule="nonzero"/><path fill="#543719" d="M 17.125 219.125 C 23.835938 219.125 29.277344 213.683594 29.277344 206.976562 C 29.277344 200.265625 23.835938 194.824219 17.125 194.824219 C 10.414062 194.824219 4.972656 200.265625 4.972656 206.976562 C 4.972656 213.683594 10.414062 219.125 17.125 219.125 " fill-opacity="1" fill-rule="nonzero"/><g clip-path="url(#c63477911c)"><path fill="#543719" d="M 12.394531 253.019531 C 18.632812 253.019531 23.6875 247.964844 23.6875 241.726562 C 23.6875 235.488281 18.632812 230.433594 12.394531 230.433594 C 6.15625 230.433594 1.097656 235.488281 1.097656 241.726562 C 1.097656 247.964844 6.15625 253.019531 12.394531 253.019531 " fill-opacity="1" fill-rule="nonzero"/></g><path fill="#543719" d="M 13.648438 286.523438 C 19.050781 286.523438 23.429688 282.144531 23.429688 276.742188 C 23.429688 271.339844 19.050781 266.960938 13.648438 266.960938 C 8.25 266.960938 3.871094 271.339844 3.871094 276.742188 C 3.871094 282.144531 8.25 286.523438 13.648438 286.523438 " fill-opacity="1" fill-rule="nonzero"/><path fill="#543719" d="M 22.53125 318.164062 C 26.695312 318.164062 30.074219 314.789062 30.074219 310.621094 C 30.074219 306.457031 26.695312 303.078125 22.53125 303.078125 C 18.367188 303.078125 14.988281 306.457031 14.988281 310.621094 C 14.988281 314.789062 18.367188 318.164062 22.53125 318.164062 " fill-opacity="1" fill-rule="nonzero"/><g clip-path="url(#766d7dc1fe)"><path fill="#543719" d="M 38.425781 346.277344 C 40.867188 346.277344 42.847656 344.296875 42.847656 341.851562 C 42.847656 339.410156 40.867188 337.429688 38.425781 337.429688 C 35.980469 337.429688 34.003906 339.410156 34.003906 341.851562 C 34.003906 344.296875 35.980469 346.277344 38.425781 346.277344 " fill-opacity="1" fill-rule="nonzero"/></g></g></g></g></svg>