<?xml version="1.0" encoding="utf-8"?>
<svg xmlns="http://www.w3.org/2000/svg" viewBox="0 0 500 500">
  <defs>
    <clipPath id="69ab2d8c8b">
      <path d="M 242.917969 14.707031 L 294.667969 14.707031 L 294.667969 360.457031 L 242.917969 360.457031 Z M 242.917969 14.707031 " clip-rule="nonzero"/>
    </clipPath>
    <clipPath id="0d26672904">
      <path d="M 10 0.707031 L 20 0.707031 L 20 10 L 10 10 Z M 10 0.707031 " clip-rule="nonzero"/>
    </clipPath>
    <clipPath id="e1acbb51f7">
      <path d="M 30 93 L 52.667969 93 L 52.667969 116 L 30 116 Z M 30 93 " clip-rule="nonzero"/>
    </clipPath>
    <clipPath id="c63477911c">
      <path d="M 1.097656 230.152344 L 23.8125 230.152344 L 23.8125 253.054688 L 1.097656 253.054688 Z M 1.097656 230.152344 " clip-rule="nonzero"/>
    </clipPath>
    <clipPath id="766d7dc1fe">
      <path d="M 34 337.171875 L 42.96875 337.171875 L 42.96875 346.277344 L 34 346.277344 Z M 34 337.171875 " clip-rule="nonzero"/>
    </clipPath>
    <clipPath id="70a33b3765">
      <rect x="0" width="53" y="0" height="347"/>
    </clipPath>
  </defs>
  <g clip-path="url(#69ab2d8c8b)" transform="matrix(1, 0, 0, 1, -23.2052, 68.54599)">
    <g transform="matrix(1, 0, 0, 1, 242, 14)">
      <g clip-path="url(#70a33b3765)">
        <g clip-path="url(#0d26672904)">
          <path fill="#543719" d="M 14.933594 9.523438 C 17.371094 9.523438 19.34375 7.546875 19.34375 5.113281 C 19.34375 2.679688 17.371094 0.707031 14.933594 0.707031 C 12.5 0.707031 10.53125 2.679688 10.53125 5.113281 C 10.53125 7.546875 12.5 9.523438 14.933594 9.523438 " fill-opacity="1" fill-rule="nonzero"/>
        </g>
        <path fill="#543719" d="M 31.949219 43.238281 C 36.101562 43.238281 39.46875 39.875 39.46875 35.722656 C 39.46875 31.570312 36.101562 28.203125 31.949219 28.203125 C 27.796875 28.203125 24.429688 31.570312 24.429688 35.722656 C 24.429688 39.875 27.796875 43.238281 31.949219 43.238281 " fill-opacity="1" fill-rule="nonzero"/>
        <path fill="#543719" d="M 40.984375 79.296875 C 46.375 79.296875 50.742188 74.925781 50.742188 69.539062 C 50.742188 64.152344 46.375 59.78125 40.984375 59.78125 C 35.597656 59.78125 31.230469 64.152344 31.230469 69.539062 C 31.230469 74.925781 35.597656 79.296875 40.984375 79.296875 " fill-opacity="1" fill-rule="nonzero"/>
        <g clip-path="url(#e1acbb51f7)">
          <path fill="#543719" d="M 41.273438 115.820312 C 47.5 115.820312 52.546875 110.773438 52.546875 104.546875 C 52.546875 98.324219 47.5 93.277344 41.273438 93.277344 C 35.046875 93.277344 30 98.324219 30 104.546875 C 30 110.773438 35.046875 115.820312 41.273438 115.820312 " fill-opacity="1" fill-rule="nonzero"/>
        </g>
        <path fill="#543719" d="M 34.140625 151.023438 C 40.84375 151.023438 46.28125 145.589844 46.28125 138.882812 C 46.28125 132.179688 40.84375 126.742188 34.140625 126.742188 C 27.4375 126.742188 22 132.179688 22 138.882812 C 22 145.589844 27.4375 151.023438 34.140625 151.023438 " fill-opacity="1" fill-rule="nonzero"/>
        <path fill="#543719" d="M 25.183594 185.246094 C 32.046875 185.246094 37.609375 179.683594 37.609375 172.820312 C 37.609375 165.957031 32.046875 160.390625 25.183594 160.390625 C 18.320312 160.390625 12.757812 165.957031 12.757812 172.820312 C 12.757812 179.683594 18.320312 185.246094 25.183594 185.246094 " fill-opacity="1" fill-rule="nonzero"/>
        <path fill="#543719" d="M 17.125 219.125 C 23.835938 219.125 29.277344 213.683594 29.277344 206.976562 C 29.277344 200.265625 23.835938 194.824219 17.125 194.824219 C 10.414062 194.824219 4.972656 200.265625 4.972656 206.976562 C 4.972656 213.683594 10.414062 219.125 17.125 219.125 " fill-opacity="1" fill-rule="nonzero"/>
        <g clip-path="url(#c63477911c)">
          <path fill="#543719" d="M 12.394531 253.019531 C 18.632812 253.019531 23.6875 247.964844 23.6875 241.726562 C 23.6875 235.488281 18.632812 230.433594 12.394531 230.433594 C 6.15625 230.433594 1.097656 235.488281 1.097656 241.726562 C 1.097656 247.964844 6.15625 253.019531 12.394531 253.019531 " fill-opacity="1" fill-rule="nonzero"/>
        </g>
        <path fill="#543719" d="M 13.648438 286.523438 C 19.050781 286.523438 23.429688 282.144531 23.429688 276.742188 C 23.429688 271.339844 19.050781 266.960938 13.648438 266.960938 C 8.25 266.960938 3.871094 271.339844 3.871094 276.742188 C 3.871094 282.144531 8.25 286.523438 13.648438 286.523438 " fill-opacity="1" fill-rule="nonzero"/>
        <path fill="#543719" d="M 22.53125 318.164062 C 26.695312 318.164062 30.074219 314.789062 30.074219 310.621094 C 30.074219 306.457031 26.695312 303.078125 22.53125 303.078125 C 18.367188 303.078125 14.988281 306.457031 14.988281 310.621094 C 14.988281 314.789062 18.367188 318.164062 22.53125 318.164062 " fill-opacity="1" fill-rule="nonzero"/>
        <g clip-path="url(#766d7dc1fe)">
          <path fill="#543719" d="M 38.425781 346.277344 C 40.867188 346.277344 42.847656 344.296875 42.847656 341.851562 C 42.847656 339.410156 40.867188 337.429688 38.425781 337.429688 C 35.980469 337.429688 34.003906 339.410156 34.003906 341.851562 C 34.003906 344.296875 35.980469 346.277344 38.425781 346.277344 " fill-opacity="1" fill-rule="nonzero"/>
        </g>
      </g>
    </g>
  </g>
</svg>